# xmcd
#
# Track frame offsets:
#	150
#	21792
#	48015
#	68600
#	84608
#	110817
#	133839
#	162407
#	191914
#	224124
#	259794
#	284971
#	312505
#
# Disc length: 4428 seconds
#
# Revision: 0
# Processed by: cddbd v1.5.1PL2 Copyright (c) Steve Scherf et al.
# Submitted via: EasyCDDAExtractor 9.0.0.1
#
DISCID=d2114a0d
DTITLE=Saxon - Planeta Z Santos 23-11-97
DYEAR=1997
DGENRE=Hard Rock
TTITLE0=Dogs Of War
TTITLE1=Unleashed The Beast
TTITLE2=Solid Ball Of Rock
TTITLE3=20 000 Feet
TTITLE4=Cut Out The Disease
TTITLE5=747 (Strangers In The Night)
TTITLE6=Dallas 1 PM
TTITLE7=The Thin Red Line
TTITLE8=Power And The Glory
TTITLE9=Broken Heroes
TTITLE10=Heavy Metal Thunder - Warrior - Battle Cry
TTITLE11=Circle Of lIght
TTITLE12=Motorcycle Man
EXTD=
EXTT0=
EXTT1=
EXTT2=
EXTT3=
EXTT4=
EXTT5=
EXTT6=
EXTT7=
EXTT8=
EXTT9=
EXTT10=
EXTT11=
EXTT12=
PLAYORDER=
